<mxfile host="app.diagrams.net" agent="Mozilla/5.0 (Windows NT 10.0; Win64; x64) AppleWebKit/537.36 (KHTML, like Gecko) Chrome/134.0.0.0 Safari/537.36" version="26.1.0">
  <diagram name="Page-1" id="gKhGHbC50X7CMHL14Nar">
    <mxGraphModel dx="840" dy="446" grid="1" gridSize="10" guides="1" tooltips="1" connect="1" arrows="1" fold="1" page="1" pageScale="1" pageWidth="850" pageHeight="1100" math="0" shadow="0">
      <root>
        <mxCell id="0" />
        <mxCell id="1" parent="0" />
        <mxCell id="jIIAj4dnIwJFyQ_Kxec_-2" value=":USER" style="swimlane;fontStyle=0;childLayout=stackLayout;horizontal=1;startSize=30;horizontalStack=0;resizeParent=1;resizeParentMax=0;resizeLast=0;collapsible=1;marginBottom=0;whiteSpace=wrap;html=1;" parent="1" vertex="1">
          <mxGeometry x="300" y="200" width="140" height="240" as="geometry" />
        </mxCell>
        <mxCell id="jIIAj4dnIwJFyQ_Kxec_-16" value="&lt;span style=&quot;text-align: center;&quot;&gt;#*USER ID&lt;/span&gt;" style="text;strokeColor=none;fillColor=none;align=left;verticalAlign=middle;spacingLeft=4;spacingRight=4;overflow=hidden;points=[[0,0.5],[1,0.5]];portConstraint=eastwest;rotatable=0;whiteSpace=wrap;html=1;" parent="jIIAj4dnIwJFyQ_Kxec_-2" vertex="1">
          <mxGeometry y="30" width="140" height="30" as="geometry" />
        </mxCell>
        <mxCell id="jIIAj4dnIwJFyQ_Kxec_-3" value="*NAME" style="text;strokeColor=none;fillColor=none;align=left;verticalAlign=middle;spacingLeft=4;spacingRight=4;overflow=hidden;points=[[0,0.5],[1,0.5]];portConstraint=eastwest;rotatable=0;whiteSpace=wrap;html=1;" parent="jIIAj4dnIwJFyQ_Kxec_-2" vertex="1">
          <mxGeometry y="60" width="140" height="30" as="geometry" />
        </mxCell>
        <mxCell id="jIIAj4dnIwJFyQ_Kxec_-4" value="ADDRES" style="text;strokeColor=none;fillColor=none;align=left;verticalAlign=middle;spacingLeft=4;spacingRight=4;overflow=hidden;points=[[0,0.5],[1,0.5]];portConstraint=eastwest;rotatable=0;whiteSpace=wrap;html=1;" parent="jIIAj4dnIwJFyQ_Kxec_-2" vertex="1">
          <mxGeometry y="90" width="140" height="30" as="geometry" />
        </mxCell>
        <mxCell id="jIIAj4dnIwJFyQ_Kxec_-5" value="*USER TYPE" style="text;strokeColor=none;fillColor=none;align=left;verticalAlign=middle;spacingLeft=4;spacingRight=4;overflow=hidden;points=[[0,0.5],[1,0.5]];portConstraint=eastwest;rotatable=0;whiteSpace=wrap;html=1;" parent="jIIAj4dnIwJFyQ_Kxec_-2" vertex="1">
          <mxGeometry y="120" width="140" height="30" as="geometry" />
        </mxCell>
        <mxCell id="jIIAj4dnIwJFyQ_Kxec_-6" value="*PASSWORD" style="text;strokeColor=none;fillColor=none;align=left;verticalAlign=middle;spacingLeft=4;spacingRight=4;overflow=hidden;points=[[0,0.5],[1,0.5]];portConstraint=eastwest;rotatable=0;whiteSpace=wrap;html=1;" parent="jIIAj4dnIwJFyQ_Kxec_-2" vertex="1">
          <mxGeometry y="150" width="140" height="30" as="geometry" />
        </mxCell>
        <mxCell id="jIIAj4dnIwJFyQ_Kxec_-7" value="*LOCK" style="text;strokeColor=none;fillColor=none;align=left;verticalAlign=middle;spacingLeft=4;spacingRight=4;overflow=hidden;points=[[0,0.5],[1,0.5]];portConstraint=eastwest;rotatable=0;whiteSpace=wrap;html=1;" parent="jIIAj4dnIwJFyQ_Kxec_-2" vertex="1">
          <mxGeometry y="180" width="140" height="30" as="geometry" />
        </mxCell>
        <mxCell id="jIIAj4dnIwJFyQ_Kxec_-8" value="E-MAIL" style="text;strokeColor=none;fillColor=none;align=left;verticalAlign=middle;spacingLeft=4;spacingRight=4;overflow=hidden;points=[[0,0.5],[1,0.5]];portConstraint=eastwest;rotatable=0;whiteSpace=wrap;html=1;" parent="jIIAj4dnIwJFyQ_Kxec_-2" vertex="1">
          <mxGeometry y="210" width="140" height="30" as="geometry" />
        </mxCell>
        <mxCell id="jIIAj4dnIwJFyQ_Kxec_-9" value=":USER CATEGORY" style="swimlane;fontStyle=0;childLayout=stackLayout;horizontal=1;startSize=30;horizontalStack=0;resizeParent=1;resizeParentMax=0;resizeLast=0;collapsible=1;marginBottom=0;whiteSpace=wrap;html=1;" parent="1" vertex="1">
          <mxGeometry x="550" y="230" width="140" height="90" as="geometry" />
        </mxCell>
        <mxCell id="jIIAj4dnIwJFyQ_Kxec_-10" value="#*CATEGORY ID" style="text;strokeColor=none;fillColor=none;align=left;verticalAlign=middle;spacingLeft=4;spacingRight=4;overflow=hidden;points=[[0,0.5],[1,0.5]];portConstraint=eastwest;rotatable=0;whiteSpace=wrap;html=1;" parent="jIIAj4dnIwJFyQ_Kxec_-9" vertex="1">
          <mxGeometry y="30" width="140" height="30" as="geometry" />
        </mxCell>
        <mxCell id="jIIAj4dnIwJFyQ_Kxec_-15" value="#*USER ID" style="text;strokeColor=none;fillColor=none;align=left;verticalAlign=middle;spacingLeft=4;spacingRight=4;overflow=hidden;points=[[0,0.5],[1,0.5]];portConstraint=eastwest;rotatable=0;whiteSpace=wrap;html=1;" parent="jIIAj4dnIwJFyQ_Kxec_-9" vertex="1">
          <mxGeometry y="60" width="140" height="30" as="geometry" />
        </mxCell>
        <mxCell id="jIIAj4dnIwJFyQ_Kxec_-18" value="" style="endArrow=none;html=1;rounded=0;entryX=-0.005;entryY=0.2;entryDx=0;entryDy=0;entryPerimeter=0;" parent="1" source="jIIAj4dnIwJFyQ_Kxec_-16" target="jIIAj4dnIwJFyQ_Kxec_-9" edge="1">
          <mxGeometry width="50" height="50" relative="1" as="geometry">
            <mxPoint x="400" y="320" as="sourcePoint" />
            <mxPoint x="490" y="244" as="targetPoint" />
          </mxGeometry>
        </mxCell>
        <mxCell id="jIIAj4dnIwJFyQ_Kxec_-20" value="0.. 1" style="text;html=1;align=center;verticalAlign=middle;whiteSpace=wrap;rounded=0;" parent="1" vertex="1">
          <mxGeometry x="440" y="220" width="30" height="30" as="geometry" />
        </mxCell>
        <mxCell id="jIIAj4dnIwJFyQ_Kxec_-21" value="1.. M" style="text;html=1;align=center;verticalAlign=middle;whiteSpace=wrap;rounded=0;" parent="1" vertex="1">
          <mxGeometry x="520" y="220" width="30" height="30" as="geometry" />
        </mxCell>
        <mxCell id="jIIAj4dnIwJFyQ_Kxec_-22" value=":CATEGORY" style="swimlane;fontStyle=0;childLayout=stackLayout;horizontal=1;startSize=30;horizontalStack=0;resizeParent=1;resizeParentMax=0;resizeLast=0;collapsible=1;marginBottom=0;whiteSpace=wrap;html=1;" parent="1" vertex="1">
          <mxGeometry x="770" y="230" width="140" height="90" as="geometry" />
        </mxCell>
        <mxCell id="jIIAj4dnIwJFyQ_Kxec_-23" value="#*CATEGORY ID" style="text;strokeColor=none;fillColor=none;align=left;verticalAlign=middle;spacingLeft=4;spacingRight=4;overflow=hidden;points=[[0,0.5],[1,0.5]];portConstraint=eastwest;rotatable=0;whiteSpace=wrap;html=1;" parent="jIIAj4dnIwJFyQ_Kxec_-22" vertex="1">
          <mxGeometry y="30" width="140" height="30" as="geometry" />
        </mxCell>
        <mxCell id="jIIAj4dnIwJFyQ_Kxec_-24" value="*CATEGORY NAME" style="text;strokeColor=none;fillColor=none;align=left;verticalAlign=middle;spacingLeft=4;spacingRight=4;overflow=hidden;points=[[0,0.5],[1,0.5]];portConstraint=eastwest;rotatable=0;whiteSpace=wrap;html=1;" parent="jIIAj4dnIwJFyQ_Kxec_-22" vertex="1">
          <mxGeometry y="60" width="140" height="30" as="geometry" />
        </mxCell>
        <mxCell id="jIIAj4dnIwJFyQ_Kxec_-25" value="" style="endArrow=none;html=1;rounded=0;entryX=0;entryY=0.182;entryDx=0;entryDy=0;entryPerimeter=0;exitX=1.012;exitY=0.169;exitDx=0;exitDy=0;exitPerimeter=0;" parent="1" source="jIIAj4dnIwJFyQ_Kxec_-9" target="jIIAj4dnIwJFyQ_Kxec_-22" edge="1">
          <mxGeometry width="50" height="50" relative="1" as="geometry">
            <mxPoint x="450" y="256" as="sourcePoint" />
            <mxPoint x="559" y="258" as="targetPoint" />
          </mxGeometry>
        </mxCell>
        <mxCell id="jIIAj4dnIwJFyQ_Kxec_-26" value="0.. M" style="text;html=1;align=center;verticalAlign=middle;whiteSpace=wrap;rounded=0;" parent="1" vertex="1">
          <mxGeometry x="700" y="220" width="30" height="30" as="geometry" />
        </mxCell>
        <mxCell id="jIIAj4dnIwJFyQ_Kxec_-27" value="1" style="text;html=1;align=center;verticalAlign=middle;whiteSpace=wrap;rounded=0;" parent="1" vertex="1">
          <mxGeometry x="740" y="220" width="30" height="30" as="geometry" />
        </mxCell>
        <mxCell id="jIIAj4dnIwJFyQ_Kxec_-28" value=":TENDER" style="swimlane;fontStyle=0;childLayout=stackLayout;horizontal=1;startSize=30;horizontalStack=0;resizeParent=1;resizeParentMax=0;resizeLast=0;collapsible=1;marginBottom=0;whiteSpace=wrap;html=1;" parent="1" vertex="1">
          <mxGeometry x="370" y="520" width="140" height="330" as="geometry" />
        </mxCell>
        <mxCell id="jIIAj4dnIwJFyQ_Kxec_-29" value="&lt;span style=&quot;text-align: center;&quot;&gt;#*TENDER ID&lt;/span&gt;" style="text;strokeColor=none;fillColor=none;align=left;verticalAlign=middle;spacingLeft=4;spacingRight=4;overflow=hidden;points=[[0,0.5],[1,0.5]];portConstraint=eastwest;rotatable=0;whiteSpace=wrap;html=1;" parent="jIIAj4dnIwJFyQ_Kxec_-28" vertex="1">
          <mxGeometry y="30" width="140" height="30" as="geometry" />
        </mxCell>
        <mxCell id="jIIAj4dnIwJFyQ_Kxec_-30" value="*TENDER NAME" style="text;strokeColor=none;fillColor=none;align=left;verticalAlign=middle;spacingLeft=4;spacingRight=4;overflow=hidden;points=[[0,0.5],[1,0.5]];portConstraint=eastwest;rotatable=0;whiteSpace=wrap;html=1;" parent="jIIAj4dnIwJFyQ_Kxec_-28" vertex="1">
          <mxGeometry y="60" width="140" height="30" as="geometry" />
        </mxCell>
        <mxCell id="jIIAj4dnIwJFyQ_Kxec_-31" value="*CONSTRUCTION FROM" style="text;strokeColor=none;fillColor=none;align=left;verticalAlign=middle;spacingLeft=4;spacingRight=4;overflow=hidden;points=[[0,0.5],[1,0.5]];portConstraint=eastwest;rotatable=0;whiteSpace=wrap;html=1;" parent="jIIAj4dnIwJFyQ_Kxec_-28" vertex="1">
          <mxGeometry y="90" width="140" height="30" as="geometry" />
        </mxCell>
        <mxCell id="jIIAj4dnIwJFyQ_Kxec_-32" value="*CONSTRUCTION TO" style="text;strokeColor=none;fillColor=none;align=left;verticalAlign=middle;spacingLeft=4;spacingRight=4;overflow=hidden;points=[[0,0.5],[1,0.5]];portConstraint=eastwest;rotatable=0;whiteSpace=wrap;html=1;" parent="jIIAj4dnIwJFyQ_Kxec_-28" vertex="1">
          <mxGeometry y="120" width="140" height="30" as="geometry" />
        </mxCell>
        <mxCell id="jIIAj4dnIwJFyQ_Kxec_-33" value="*DATE OF TENDER NOTICE" style="text;strokeColor=none;fillColor=none;align=left;verticalAlign=middle;spacingLeft=4;spacingRight=4;overflow=hidden;points=[[0,0.5],[1,0.5]];portConstraint=eastwest;rotatable=0;whiteSpace=wrap;html=1;" parent="jIIAj4dnIwJFyQ_Kxec_-28" vertex="1">
          <mxGeometry y="150" width="140" height="30" as="geometry" />
        </mxCell>
        <mxCell id="jIIAj4dnIwJFyQ_Kxec_-34" value="*DATE OF TENDER CLOSE" style="text;strokeColor=none;fillColor=none;align=left;verticalAlign=middle;spacingLeft=4;spacingRight=4;overflow=hidden;points=[[0,0.5],[1,0.5]];portConstraint=eastwest;rotatable=0;whiteSpace=wrap;html=1;" parent="jIIAj4dnIwJFyQ_Kxec_-28" vertex="1">
          <mxGeometry y="180" width="140" height="30" as="geometry" />
        </mxCell>
        <mxCell id="jIIAj4dnIwJFyQ_Kxec_-35" value="*DATE OF DISCLOSING WINNER" style="text;strokeColor=none;fillColor=none;align=left;verticalAlign=middle;spacingLeft=4;spacingRight=4;overflow=hidden;points=[[0,0.5],[1,0.5]];portConstraint=eastwest;rotatable=0;whiteSpace=wrap;html=1;" parent="jIIAj4dnIwJFyQ_Kxec_-28" vertex="1">
          <mxGeometry y="210" width="140" height="30" as="geometry" />
        </mxCell>
        <mxCell id="jIIAj4dnIwJFyQ_Kxec_-36" value="*BIDDING PRICE" style="text;strokeColor=none;fillColor=none;align=left;verticalAlign=middle;spacingLeft=4;spacingRight=4;overflow=hidden;points=[[0,0.5],[1,0.5]];portConstraint=eastwest;rotatable=0;whiteSpace=wrap;html=1;" parent="jIIAj4dnIwJFyQ_Kxec_-28" vertex="1">
          <mxGeometry y="240" width="140" height="30" as="geometry" />
        </mxCell>
        <mxCell id="jIIAj4dnIwJFyQ_Kxec_-37" value="*TENDER STATUS" style="text;strokeColor=none;fillColor=none;align=left;verticalAlign=middle;spacingLeft=4;spacingRight=4;overflow=hidden;points=[[0,0.5],[1,0.5]];portConstraint=eastwest;rotatable=0;whiteSpace=wrap;html=1;" parent="jIIAj4dnIwJFyQ_Kxec_-28" vertex="1">
          <mxGeometry y="270" width="140" height="30" as="geometry" />
        </mxCell>
        <mxCell id="jIIAj4dnIwJFyQ_Kxec_-38" value="*STAFF ID" style="text;strokeColor=none;fillColor=none;align=left;verticalAlign=middle;spacingLeft=4;spacingRight=4;overflow=hidden;points=[[0,0.5],[1,0.5]];portConstraint=eastwest;rotatable=0;whiteSpace=wrap;html=1;" parent="jIIAj4dnIwJFyQ_Kxec_-28" vertex="1">
          <mxGeometry y="300" width="140" height="30" as="geometry" />
        </mxCell>
        <mxCell id="jIIAj4dnIwJFyQ_Kxec_-39" value="" style="endArrow=none;html=1;rounded=0;exitX=0.5;exitY=0;exitDx=0;exitDy=0;entryX=0.502;entryY=1.011;entryDx=0;entryDy=0;entryPerimeter=0;" parent="1" source="jIIAj4dnIwJFyQ_Kxec_-28" target="jIIAj4dnIwJFyQ_Kxec_-8" edge="1">
          <mxGeometry width="50" height="50" relative="1" as="geometry">
            <mxPoint x="560" y="520" as="sourcePoint" />
            <mxPoint x="330" y="470" as="targetPoint" />
          </mxGeometry>
        </mxCell>
        <mxCell id="jIIAj4dnIwJFyQ_Kxec_-40" value=":BID" style="swimlane;fontStyle=0;childLayout=stackLayout;horizontal=1;startSize=30;horizontalStack=0;resizeParent=1;resizeParentMax=0;resizeLast=0;collapsible=1;marginBottom=0;whiteSpace=wrap;html=1;" parent="1" vertex="1">
          <mxGeometry x="600" y="410" width="140" height="150" as="geometry" />
        </mxCell>
        <mxCell id="jIIAj4dnIwJFyQ_Kxec_-41" value="#*BIDDER ID" style="text;strokeColor=none;fillColor=none;align=left;verticalAlign=middle;spacingLeft=4;spacingRight=4;overflow=hidden;points=[[0,0.5],[1,0.5]];portConstraint=eastwest;rotatable=0;whiteSpace=wrap;html=1;" parent="jIIAj4dnIwJFyQ_Kxec_-40" vertex="1">
          <mxGeometry y="30" width="140" height="30" as="geometry" />
        </mxCell>
        <mxCell id="jIIAj4dnIwJFyQ_Kxec_-42" value="*TENDER ID" style="text;strokeColor=none;fillColor=none;align=left;verticalAlign=middle;spacingLeft=4;spacingRight=4;overflow=hidden;points=[[0,0.5],[1,0.5]];portConstraint=eastwest;rotatable=0;whiteSpace=wrap;html=1;" parent="jIIAj4dnIwJFyQ_Kxec_-40" vertex="1">
          <mxGeometry y="60" width="140" height="30" as="geometry" />
        </mxCell>
        <mxCell id="jIIAj4dnIwJFyQ_Kxec_-44" value="BIDDING PRICE" style="text;strokeColor=none;fillColor=none;align=left;verticalAlign=middle;spacingLeft=4;spacingRight=4;overflow=hidden;points=[[0,0.5],[1,0.5]];portConstraint=eastwest;rotatable=0;whiteSpace=wrap;html=1;" parent="jIIAj4dnIwJFyQ_Kxec_-40" vertex="1">
          <mxGeometry y="90" width="140" height="30" as="geometry" />
        </mxCell>
        <mxCell id="jIIAj4dnIwJFyQ_Kxec_-43" value="IS WINNER&#39;S ID" style="text;strokeColor=none;fillColor=none;align=left;verticalAlign=middle;spacingLeft=4;spacingRight=4;overflow=hidden;points=[[0,0.5],[1,0.5]];portConstraint=eastwest;rotatable=0;whiteSpace=wrap;html=1;" parent="jIIAj4dnIwJFyQ_Kxec_-40" vertex="1">
          <mxGeometry y="120" width="140" height="30" as="geometry" />
        </mxCell>
        <mxCell id="jIIAj4dnIwJFyQ_Kxec_-45" value="" style="endArrow=none;html=1;rounded=0;entryX=0;entryY=0;entryDx=0;entryDy=0;exitX=1;exitY=0.5;exitDx=0;exitDy=0;" parent="1" source="jIIAj4dnIwJFyQ_Kxec_-5" target="jIIAj4dnIwJFyQ_Kxec_-40" edge="1">
          <mxGeometry width="50" height="50" relative="1" as="geometry">
            <mxPoint x="560" y="440" as="sourcePoint" />
            <mxPoint x="610" y="390" as="targetPoint" />
          </mxGeometry>
        </mxCell>
        <mxCell id="jIIAj4dnIwJFyQ_Kxec_-46" value="" style="endArrow=none;html=1;rounded=0;exitX=1.007;exitY=0.789;exitDx=0;exitDy=0;exitPerimeter=0;entryX=0;entryY=0.5;entryDx=0;entryDy=0;" parent="1" source="jIIAj4dnIwJFyQ_Kxec_-31" target="jIIAj4dnIwJFyQ_Kxec_-42" edge="1">
          <mxGeometry width="50" height="50" relative="1" as="geometry">
            <mxPoint x="560" y="520" as="sourcePoint" />
            <mxPoint x="610" y="470" as="targetPoint" />
          </mxGeometry>
        </mxCell>
        <mxCell id="jIIAj4dnIwJFyQ_Kxec_-47" value="1.. M" style="text;html=1;align=center;verticalAlign=middle;whiteSpace=wrap;rounded=0;" parent="1" vertex="1">
          <mxGeometry x="440" y="310" width="30" height="30" as="geometry" />
        </mxCell>
        <mxCell id="jIIAj4dnIwJFyQ_Kxec_-48" value="0.. 1" style="text;html=1;align=center;verticalAlign=middle;whiteSpace=wrap;rounded=0;" parent="1" vertex="1">
          <mxGeometry x="580" y="380" width="30" height="30" as="geometry" />
        </mxCell>
        <mxCell id="jIIAj4dnIwJFyQ_Kxec_-49" value="1" style="text;html=1;align=center;verticalAlign=middle;whiteSpace=wrap;rounded=0;" parent="1" vertex="1">
          <mxGeometry x="380" y="440" width="30" height="30" as="geometry" />
        </mxCell>
        <mxCell id="jIIAj4dnIwJFyQ_Kxec_-52" value="0.. M" style="text;html=1;align=center;verticalAlign=middle;whiteSpace=wrap;rounded=0;" parent="1" vertex="1">
          <mxGeometry x="440" y="490" width="30" height="30" as="geometry" />
        </mxCell>
        <mxCell id="jIIAj4dnIwJFyQ_Kxec_-53" value="1" style="text;html=1;align=center;verticalAlign=middle;whiteSpace=wrap;rounded=0;" parent="1" vertex="1">
          <mxGeometry x="510" y="580" width="30" height="30" as="geometry" />
        </mxCell>
        <mxCell id="jIIAj4dnIwJFyQ_Kxec_-55" value="1" style="text;html=1;align=center;verticalAlign=middle;whiteSpace=wrap;rounded=0;" parent="1" vertex="1">
          <mxGeometry x="570" y="470" width="30" height="30" as="geometry" />
        </mxCell>
        <mxCell id="Wk32qjK_VAZ69gZrxBev-2" value=":USER TYPES" style="swimlane;fontStyle=0;childLayout=stackLayout;horizontal=1;startSize=30;horizontalStack=0;resizeParent=1;resizeParentMax=0;resizeLast=0;collapsible=1;marginBottom=0;whiteSpace=wrap;html=1;" parent="1" vertex="1">
          <mxGeometry x="660" y="80" width="140" height="90" as="geometry" />
        </mxCell>
        <mxCell id="Wk32qjK_VAZ69gZrxBev-3" value="&lt;span style=&quot;text-align: center;&quot;&gt;#*USER TYPES ID&lt;/span&gt;" style="text;strokeColor=none;fillColor=none;align=left;verticalAlign=middle;spacingLeft=4;spacingRight=4;overflow=hidden;points=[[0,0.5],[1,0.5]];portConstraint=eastwest;rotatable=0;whiteSpace=wrap;html=1;" parent="Wk32qjK_VAZ69gZrxBev-2" vertex="1">
          <mxGeometry y="30" width="140" height="30" as="geometry" />
        </mxCell>
        <mxCell id="Wk32qjK_VAZ69gZrxBev-4" value="* USER TYPE NAME" style="text;strokeColor=none;fillColor=none;align=left;verticalAlign=middle;spacingLeft=4;spacingRight=4;overflow=hidden;points=[[0,0.5],[1,0.5]];portConstraint=eastwest;rotatable=0;whiteSpace=wrap;html=1;" parent="Wk32qjK_VAZ69gZrxBev-2" vertex="1">
          <mxGeometry y="60" width="140" height="30" as="geometry" />
        </mxCell>
        <mxCell id="Wk32qjK_VAZ69gZrxBev-10" value="" style="endArrow=none;html=1;rounded=0;entryX=0;entryY=0.111;entryDx=0;entryDy=0;entryPerimeter=0;exitX=0.986;exitY=0.051;exitDx=0;exitDy=0;exitPerimeter=0;" parent="1" source="jIIAj4dnIwJFyQ_Kxec_-2" target="Wk32qjK_VAZ69gZrxBev-2" edge="1">
          <mxGeometry width="50" height="50" relative="1" as="geometry">
            <mxPoint x="510" y="420" as="sourcePoint" />
            <mxPoint x="560" y="370" as="targetPoint" />
          </mxGeometry>
        </mxCell>
        <mxCell id="Wk32qjK_VAZ69gZrxBev-11" value="0.. 1" style="text;html=1;align=center;verticalAlign=middle;whiteSpace=wrap;rounded=0;" parent="1" vertex="1">
          <mxGeometry x="440" y="160" width="30" height="30" as="geometry" />
        </mxCell>
        <mxCell id="Wk32qjK_VAZ69gZrxBev-12" value="1.. M" style="text;html=1;align=center;verticalAlign=middle;whiteSpace=wrap;rounded=0;" parent="1" vertex="1">
          <mxGeometry x="620" y="70" width="30" height="30" as="geometry" />
        </mxCell>
      </root>
    </mxGraphModel>
  </diagram>
</mxfile>
